# Blender v2.80 (sub 75) OBJ File: ''
# www.blender.org
o Cube_Cube.003
v -1.000000 -1.000000 1.000000
v -1.000000 1.000000 1.000000
v -1.000000 -1.000000 -1.000000
v -1.000000 1.000000 -1.000000
v 1.000000 -1.000000 1.000000
v 1.000000 1.000000 1.000000
v 1.000000 -1.000000 -1.000000
v 1.000000 1.000000 -1.000000
v -9.981893 -1.000000 1.000000
v -9.981893 1.000000 1.000000
v -9.981893 1.000000 -1.000000
v -9.981893 -1.000000 -1.000000
v -1.000000 -1.000000 -25.005898
v -1.000000 1.000000 -25.005898
v 1.000000 1.000000 -25.005898
v 1.000000 -1.000000 -25.005898
v 9.981894 -1.000000 -1.000000
v 9.981894 1.000000 -1.000000
v 9.981894 1.000000 1.000000
v 9.981894 -1.000000 1.000000
v 1.000000 -1.000000 25.005898
v 1.000000 1.000000 25.005898
v -1.000000 1.000000 25.005898
v -1.000000 -1.000000 25.005898
v -1.000000 -40.322750 -1.000000
v 1.000000 -40.322750 -1.000000
v 1.000000 -40.322750 1.000000
v -1.000000 -40.322750 1.000000
v 1.000000 40.322750 -1.000000
v -1.000000 40.322750 -1.000000
v -1.000000 40.322750 1.000000
v 1.000000 40.322750 1.000000
vt 0.625000 0.000000
vt 0.375000 0.250000
vt 0.375000 0.000000
vt 0.375000 0.000000
vt 0.625000 0.000000
vt 0.625000 0.250000
vt 0.625000 0.250000
vt 0.375000 0.250000
vt 0.625000 0.250000
vt 0.375000 0.500000
vt 0.375000 0.250000
vt 0.625000 0.500000
vt 0.625000 0.500000
vt 0.375000 0.500000
vt 0.625000 0.500000
vt 0.375000 0.750000
vt 0.375000 0.500000
vt 0.625000 0.750000
vt 0.625000 0.750000
vt 0.375000 0.750000
vt 0.625000 0.750000
vt 0.375000 1.000000
vt 0.375000 0.750000
vt 0.625000 1.000000
vt 0.625000 1.000000
vt 0.375000 1.000000
vt 0.375000 0.500000
vt 0.125000 0.750000
vt 0.125000 0.500000
vt 0.125000 0.500000
vt 0.375000 0.750000
vt 0.125000 0.750000
vt 0.875000 0.500000
vt 0.625000 0.750000
vt 0.625000 0.500000
vt 0.875000 0.500000
vt 0.875000 0.750000
vt 0.875000 0.750000
vn -1.0000 0.0000 0.0000
vn 0.0000 0.0000 1.0000
vn 0.0000 1.0000 0.0000
vn 0.0000 0.0000 -1.0000
vn 0.0000 -1.0000 0.0000
vn 1.0000 0.0000 0.0000
s off
f 10/1/1 12/2/1 9/3/1
f 10/1/2 1/4/2 2/5/2
f 11/6/3 2/5/3 4/7/3
f 12/2/4 4/7/4 3/8/4
f 9/3/5 3/8/5 1/4/5
f 14/9/4 16/10/4 13/11/4
f 14/9/1 3/8/1 4/7/1
f 15/12/3 4/7/3 8/13/3
f 16/10/6 8/13/6 7/14/6
f 13/11/5 7/14/5 3/8/5
f 18/15/6 20/16/6 17/17/6
f 18/15/4 7/14/4 8/13/4
f 19/18/3 8/13/3 6/19/3
f 20/16/2 6/19/2 5/20/2
f 17/17/5 5/20/5 7/14/5
f 22/21/2 24/22/2 21/23/2
f 22/21/6 5/20/6 6/19/6
f 23/24/3 6/19/3 2/25/3
f 24/22/1 2/25/1 1/26/1
f 21/23/5 1/26/5 5/20/5
f 26/27/5 28/28/5 25/29/5
f 26/27/4 3/30/4 7/14/4
f 27/31/6 7/14/6 5/20/6
f 28/28/2 5/20/2 1/32/2
f 25/29/1 1/32/1 3/30/1
f 30/33/3 32/34/3 29/35/3
f 30/33/4 8/13/4 4/36/4
f 31/37/1 4/36/1 2/38/1
f 32/34/2 2/38/2 6/19/2
f 29/35/6 6/19/6 8/13/6
f 10/1/1 11/6/1 12/2/1
f 10/1/2 9/3/2 1/4/2
f 11/6/3 10/1/3 2/5/3
f 12/2/4 11/6/4 4/7/4
f 9/3/5 12/2/5 3/8/5
f 14/9/4 15/12/4 16/10/4
f 14/9/1 13/11/1 3/8/1
f 15/12/3 14/9/3 4/7/3
f 16/10/6 15/12/6 8/13/6
f 13/11/5 16/10/5 7/14/5
f 18/15/6 19/18/6 20/16/6
f 18/15/4 17/17/4 7/14/4
f 19/18/3 18/15/3 8/13/3
f 20/16/2 19/18/2 6/19/2
f 17/17/5 20/16/5 5/20/5
f 22/21/2 23/24/2 24/22/2
f 22/21/6 21/23/6 5/20/6
f 23/24/3 22/21/3 6/19/3
f 24/22/1 23/24/1 2/25/1
f 21/23/5 24/22/5 1/26/5
f 26/27/5 27/31/5 28/28/5
f 26/27/4 25/29/4 3/30/4
f 27/31/6 26/27/6 7/14/6
f 28/28/2 27/31/2 5/20/2
f 25/29/1 28/28/1 1/32/1
f 30/33/3 31/37/3 32/34/3
f 30/33/4 29/35/4 8/13/4
f 31/37/1 30/33/1 4/36/1
f 32/34/2 31/37/2 2/38/2
f 29/35/6 32/34/6 6/19/6
